HIERARCHY
ROOT Hips
{
	OFFSET 0.000000 0.000000 0.000000
	CHANNELS 6 Xposition Yposition Zposition Zrotation Yrotation Xrotation 
	JOINT LHipJoint
	{
		OFFSET 0.000000 0.000000 0.000000
		CHANNELS 3 Zrotation Yrotation Xrotation
		JOINT LeftUpLeg
		{
			OFFSET 1.363060 -1.794630 0.839290
			CHANNELS 3 Zrotation Yrotation Xrotation
			JOINT LeftLeg
			{
				OFFSET 2.448110 -6.726130 0.000000
				CHANNELS 3 Zrotation Yrotation Xrotation
				JOINT LeftFoot
				{
					OFFSET 2.562200 -7.039590 0.000000
					CHANNELS 3 Zrotation Yrotation Xrotation
					JOINT LeftToeBase
					{
						OFFSET 0.157640 -0.433110 2.322550
						CHANNELS 3 Zrotation Yrotation Xrotation
						End Site
						{
							OFFSET 0.000000 0.000000 0.000000
						}
					}
				}
			}
		}
	}
	JOINT RHipJoint
	{
		OFFSET 0.000000 0.000000 0.000000
		CHANNELS 3 Zrotation Yrotation Xrotation
		JOINT RightUpLeg
		{
			OFFSET -1.305520 -1.794630 0.839290
			CHANNELS 3 Zrotation Yrotation Xrotation
			JOINT RightLeg
			{
				OFFSET -2.542530 -6.985550 0.000000
				CHANNELS 3 Zrotation Yrotation Xrotation
				JOINT RightFoot
				{
					OFFSET -2.568260 -7.056230 0.000000
					CHANNELS 3 Zrotation Yrotation Xrotation
					JOINT RightToeBase
					{
						OFFSET -0.164730 -0.452590 2.363150
						CHANNELS 3 Zrotation Yrotation Xrotation
						End Site
						{
							OFFSET 0.000000 0.000000 0.000000
						}
					}
				}
			}
		}
	}
}
MOTION
Frames: 28
Frame Time: 0.008333
-8.071061 16.306637 -2.654104 8.123045 85.115024 28.907281 -9.713690 -1.597157 2.475434 -1.191350 -2.202693 -51.771132 -1.682284 0.799029 18.002671 0.150842 0.078712 10.987141 0.337600 -0.000000 -46.286701 9.615034 -2.567493 -2.307396 5.279840 -1.142115 -2.176712 1.193179 -2.354179 31.766106 0.436028 5.632107 1.595053 0.708900 0.000000 -84.287700
-7.837121 16.288410 -2.636157 14.103390 85.062222 34.686749 -9.700882 -1.661675 2.205735 -2.068133 -1.931051 -52.090018 -1.617853 1.015994 20.800578 0.196859 0.322552 11.292818 0.400400 0.000000 -43.159100 9.943688 -2.707533 -2.375927 4.510044 -2.023734 -3.650073 0.823839 -2.697039 35.313309 0.239247 4.587691 3.779080 0.757300 -0.000000 -85.259501
-7.608950 16.278107 -2.617030 18.563093 84.886281 38.950967 -9.629571 -1.679231 1.932924 -2.933202 -1.562266 -52.245615 -1.574722 1.192135 23.290532 0.242587 0.601488 11.144930 0.477400 -0.000000 -40.505100 10.311134 -2.756699 -2.454397 3.787579 -2.911646 -5.233104 0.442160 -2.984960 38.886759 -0.032205 3.063237 5.898973 0.643600 -0.000000 -84.586200
-7.386605 16.276139 -2.597407 21.714476 84.598968 41.920802 -9.532918 -1.657988 1.667527 -3.766486 -1.128293 -52.235713 -1.557331 1.332046 25.444122 0.287627 0.908419 10.556373 0.560300 -0.000001 -38.581600 10.674971 -2.719355 -2.541402 3.125127 -3.766650 -6.906108 0.071578 -3.220731 42.443593 -0.369107 1.067117 7.783824 0.310699 0.000000 -82.020600
-7.169936 16.282701 -2.578110 23.726814 84.217414 43.770089 -9.434107 -1.608703 1.415067 -4.544442 -0.651281 -52.061340 -1.566054 1.439831 27.256292 0.332143 1.229711 9.579023 0.637300 0.000000 -37.478200 11.006568 -2.609282 -2.633813 2.543998 -4.557262 -8.648375 -0.267288 -3.413653 45.930534 -0.754814 -1.337092 9.271112 -0.256200 0.000000 -77.734500
-6.958464 16.297676 -2.559868 24.763488 83.756921 44.664587 -9.347887 -1.541295 1.178513 -5.244200 -0.148306 -51.722632 -1.598010 1.518172 28.728852 0.377638 1.555669 8.299741 0.698700 0.000000 -37.164600 11.289370 -2.445146 -2.727512 2.062727 -5.257683 -10.440674 -0.561924 -3.576289 49.291963 -1.166521 -4.022347 10.225593 -1.011100 0.000000 -72.146600
-6.751664 16.320778 -2.543310 24.948157 83.229048 44.729363 -9.284476 -1.463932 0.959949 -5.841107 0.369782 -51.222998 -1.647522 1.569413 29.868804 0.426431 1.882402 6.830094 0.739201 -0.000000 -37.537500 11.513582 -2.246738 -2.817056 1.701878 -5.841565 -12.263546 -0.810009 -3.719412 52.468468 -1.579790 -6.818715 10.582096 -1.853600 0.000000 -65.921899
-6.548770 16.351532 -2.528452 24.458963 82.642459 44.145345 -9.245994 -1.381594 0.760739 -6.324022 0.888270 -50.567397 -1.707989 1.594581 30.680561 0.481003 2.218653 5.296993 0.760500 -0.000000 -38.440500 11.680960 -2.031327 -2.896333 1.466130 -6.291706 -14.106086 -1.015605 -3.851123 55.412097 -1.970101 -9.526109 10.337791 -2.651500 0.000000 -59.638601
-6.349077 16.389303 -2.515495 23.365101 82.005821 42.985191 -9.237509 -1.298719 0.582594 -6.671619 1.406894 -49.775961 -1.770979 1.597514 31.184756 0.542295 2.568322 3.821411 0.765900 0.000000 -39.679000 11.789376 -1.812795 -2.957974 1.379215 -6.584117 -15.955061 -1.186515 -3.971514 58.075077 -2.318414 -11.970128 9.587691 -3.292000 0.000000 -53.975300
-6.151811 16.433296 -2.503944 21.834558 81.327779 41.419875 -9.255867 -1.216029 0.426422 -6.886434 1.917798 -48.868222 -1.829588 1.580921 31.402028 0.610196 2.943192 2.509451 0.764000 0.000000 -41.033000 11.847503 -1.600650 -2.996858 1.439836 -6.719073 -17.806306 -1.327953 -4.079957 60.434292 -2.606471 -13.990344 8.428940 -3.690300 0.000000 -49.094900
-5.956411 16.482646 -2.492940 20.031403 80.619615 39.613471 -9.296473 -1.133020 0.291908 -6.980196 2.417184 -47.866786 -1.878389 1.548213 31.361176 0.683128 3.350129 1.439535 0.763700 -0.000001 -42.292900 11.864895 -1.400781 -3.010117 1.640739 -6.709652 -19.654407 -1.442174 -4.174283 62.473402 -2.819792 -15.470218 6.976761 -3.811700 0.000000 -45.018101
-5.762355 16.536466 -2.481475 18.125491 79.895016 37.735075 -9.352748 -1.048397 0.177180 -6.977651 2.901903 -46.793722 -1.914697 1.502443 31.092976 0.758657 3.790779 0.656497 0.773500 -0.000001 -43.292600 11.852180 -1.216067 -2.997474 1.962675 -6.582391 -21.493398 -1.528193 -4.252988 64.179913 -2.947551 -16.337470 5.351554 -3.670600 -0.000000 -41.674200
-5.569498 16.593816 -2.468398 16.259875 79.170256 35.920736 -9.419469 -0.960854 0.078451 -6.908503 3.376047 -45.668180 -1.938709 1.446939 30.632078 0.833395 4.255250 0.169369 0.798900 0.000000 -43.936300 11.817442 -1.047718 -2.961167 2.381726 -6.371107 -23.310479 -1.583428 -4.315332 65.544727 -2.983618 -16.567610 3.673796 -3.323100 -0.000000 -38.997600
-5.377718 16.653865 -2.452616 14.556699 78.461642 34.285894 -9.491231 -0.869278 -0.009472 -6.807939 3.845173 -44.505607 -1.953633 1.384186 30.009432 0.903921 4.727269 -0.044964 0.842500 -0.000001 -44.201600 11.767805 -0.894709 -2.905209 2.866265 -6.113243 -25.094142 -1.605198 -4.361871 66.561983 -2.927583 -16.181831 2.063788 -2.851300 -0.000000 -36.973900
-5.187150 16.715796 -2.433261 13.098478 77.784109 32.903256 -9.564319 -0.772758 -0.092527 -6.708415 4.319398 -43.316813 -1.964636 1.316440 29.254573 0.966612 5.182785 -0.034279 0.902500 0.000000 -44.134200 11.708001 -0.754609 -2.834951 3.385481 -5.845456 -26.831337 -1.592456 -4.393600 67.231145 -2.786216 -15.247475 0.630249 -2.341700 0.000000 -35.639200
-4.998023 16.778894 -2.409683 11.932400 77.148544 31.808798 -9.636029 -0.670611 -0.176716 -6.636939 4.810650 -42.107737 -1.977779 1.245436 28.393620 1.018036 5.594759 0.139025 0.973000 0.000000 -43.830400 11.641506 -0.623776 -2.756498 3.911604 -5.600983 -28.510137 -1.546726 -4.411857 67.559970 -2.574352 -13.874705 -0.541362 -1.864600 -0.000000 -35.044700
-4.810556 16.842423 -2.381657 11.068199 76.561018 31.003118 -9.704846 -0.562623 -0.267206 -6.610707 5.330689 -40.881713 -1.998576 1.172610 27.450003 1.055285 5.937305 0.410466 1.045300 -0.000001 -43.417400 11.570241 -0.497830 -2.675968 4.425702 -5.405315 -30.122544 -1.471932 -4.417765 67.564222 -2.314231 -12.207790 -1.404339 -1.461600 -0.000000 -35.199500
-4.624943 16.905739 -2.349259 10.489535 76.022811 30.460536 -9.770306 -0.448848 -0.367465 -6.636620 5.888887 -39.638996 -2.030942 1.099038 26.444785 1.076081 6.188331 0.724037 1.110000 0.000000 -43.029000 11.495152 -0.373040 -2.598723 4.917718 -5.276169 -31.662903 -1.373306 -4.412624 67.269476 -2.032276 -10.407409 -1.964664 -1.142800 0.000000 -36.003700
-4.441213 16.968221 -2.312847 10.162962 75.528849 30.142633 -9.832372 -0.329945 -0.480235 -6.712318 6.489639 -38.376696 -2.076727 1.025520 25.394230 1.079411 6.334671 1.040363 1.159100 -0.000001 -42.792200 11.416306 -0.245875 -2.530301 5.384650 -5.222100 -33.127787 -1.255926 -4.397778 66.706057 -1.754802 -8.631193 -2.276309 -0.898700 -0.000000 -37.273900
-4.259393 17.029169 -2.273013 10.039499 75.072724 29.995618 -9.892349 -0.206416 -0.604697 -6.826076 7.132404 -37.093181 -2.135201 0.952833 24.316028 1.065251 6.369977 1.337883 1.187500 -0.000000 -42.797000 11.332696 -0.115692 -2.472716 5.831468 -5.241745 -34.515678 -1.123423 -4.374590 65.909824 -1.503513 -7.013398 -2.436535 -0.712000 -0.000000 -38.712900
-4.079257 17.087988 -2.230389 10.070555 74.642060 29.971912 -9.951002 -0.079359 -0.740381 -6.963049 7.808794 -35.784394 -2.203761 0.881588 23.220253 1.035261 6.300503 1.616929 1.194900 -0.000000 -43.106800 11.243336 0.018354 -2.428107 6.262053 -5.325143 -35.824036 -0.977838 -4.343987 64.909506 -1.293079 -5.651335 -2.545297 -0.570000 0.000000 -40.130399
-3.900560 17.144009 -2.185684 10.202463 74.227099 30.019909 -10.010155 0.050564 -0.882974 -7.103483 8.506211 -34.451467 -2.278007 0.812531 22.119714 0.992072 6.139032 1.890145 1.184000 -0.000000 -43.731700 11.146516 0.154099 -2.393888 6.684776 -5.455285 -37.052565 -0.819175 -4.306247 63.730620 -1.130834 -4.599036 -2.706578 -0.464100 -0.000000 -41.282000
-3.722877 17.196676 -2.139472 10.390287 73.816759 30.101736 -10.070852 0.182542 -1.028569 -7.230564 9.207073 -33.097028 -2.353058 0.746472 21.023082 0.939269 5.905861 2.180489 1.160400 -0.000000 -44.643800 11.041021 0.289728 -2.366910 7.104056 -5.612001 -38.200597 -0.646171 -4.260751 62.386474 -1.018035 -3.866918 -2.996335 -0.389200 -0.000000 -42.028799
-3.545795 17.245411 -2.092165 10.601550 73.402705 30.191168 -10.133701 0.316316 -1.172705 -7.331759 9.893536 -31.724324 -2.424222 0.684032 19.937609 0.880732 5.624484 2.512144 1.130100 0.000000 -45.773399 10.926449 0.422445 -2.341819 7.521046 -5.775626 -39.266462 -0.456917 -4.206130 60.881452 -0.951730 -3.428043 -3.458935 -0.338900 -0.000000 -42.269100
-3.368854 17.289756 -2.043960 10.811393 72.978215 30.272219 -10.198734 0.451632 -1.311657 -7.400271 10.551024 -30.342203 -2.488075 0.626005 18.870957 0.820007 5.316390 2.903629 1.098000 0.000001 -47.020300 10.802766 0.549734 -2.312597 7.935426 -5.928278 -40.250301 -0.249702 -4.140097 59.212703 -0.926284 -3.228123 -4.102778 -0.304500 0.000000 -41.921500
-3.191661 17.329264 -1.994810 11.011444 72.540434 30.342948 -10.265285 0.588793 -1.442628 -7.436148 11.171750 -28.959634 -2.542905 0.572768 17.830641 0.759844 4.998606 3.363113 1.067000 -0.000000 -48.271700 10.671137 0.668582 -2.272077 8.343506 -6.056768 -41.151996 -0.024031 -4.059901 57.372604 -0.934532 -3.199238 -4.896966 -0.276500 0.000000 -40.981300
-3.013933 17.363638 -1.944502 11.205560 72.083917 30.411298 -10.331458 0.727925 -1.567581 -7.447760 11.758193 -27.579994 -2.589392 0.524381 16.818316 0.702005 4.682274 3.887874 1.037800 0.000001 -49.421400 10.534443 0.777995 -2.216291 8.735520 -6.154622 -41.968859 0.218966 -3.962873 55.352595 -0.967795 -3.269544 -5.781502 -0.247200 -0.000001 -39.495600
-2.835370 17.392493 -1.892748 11.391625 71.610303 30.481417 -10.396457 0.869187 -1.685531 -7.442194 12.320555 -26.221474 -2.629633 0.480766 15.845364 0.646906 4.367525 4.458169 1.008200 0.000001 -50.391500 10.394484 0.874687 -2.137344 9.111232 -6.215450 -42.707622 0.475268 -3.845658 53.144953 -1.018031 -3.385989 -6.661898 -0.216001 0.000000 -37.719400
